<svg width="30" height="30" viewBox="0 0 30 30" fill="none" xmlns="http://www.w3.org/2000/svg">
<path fill-rule="evenodd" clip-rule="evenodd" d="M15 30C23.2843 30 30 23.2843 30 15C30 6.71573 23.2843 0 15 0C6.71573 0 0 6.71573 0 15C0 23.2843 6.71573 30 15 30ZM9.875 15.9375C9.875 15.6614 9.65114 15.4375 9.375 15.4375C9.09886 15.4375 8.875 15.6614 8.875 15.9375V18.1875C8.875 18.6365 9.07365 19.055 9.40663 19.3546C9.73788 19.6528 10.1769 19.8125 10.625 19.8125H19.375C19.8231 19.8125 20.2621 19.6528 20.5934 19.3546C20.9264 19.055 21.125 18.6365 21.125 18.1875V15.9375C21.125 15.6614 20.9011 15.4375 20.625 15.4375C20.3489 15.4375 20.125 15.6614 20.125 15.9375V18.1875C20.125 18.3352 20.0603 18.4891 19.9244 18.6113C19.7868 18.7352 19.5899 18.8125 19.375 18.8125H10.625C10.4101 18.8125 10.2132 18.7352 10.0756 18.6113C9.93975 18.4891 9.875 18.3352 9.875 18.1875V15.9375ZM11.5034 12.7905C11.6881 12.5853 12.0042 12.5686 12.2095 12.7534L14.5 14.8148V15.9375C14.5 16.0843 14.5633 16.2164 14.6641 16.3079L11.5405 13.4966C11.3353 13.3119 11.3186 12.9958 11.5034 12.7905ZM15.5 14.8148L15 15.2648L14.5 14.8148V9.1875C14.5 8.91136 14.7239 8.6875 15 8.6875C15.2761 8.6875 15.5 8.91136 15.5 9.1875V14.8148ZM15.3359 16.3079C15.4367 16.2164 15.5 16.0843 15.5 15.9375V14.8148L17.7905 12.7534C17.9958 12.5686 18.3119 12.5853 18.4966 12.7905C18.6814 12.9958 18.6647 13.3119 18.4595 13.4966L15.3359 16.3079ZM15 16.4375C15.1197 16.4375 15.2394 16.3947 15.3345 16.3091L15.3359 16.3079C15.2472 16.3884 15.1293 16.4375 15 16.4375ZM14.6655 16.3091C14.665 16.3087 14.6646 16.3083 14.6641 16.3079L14.6655 16.3091Z" fill="white"/>
</svg>
