<svg width="50" height="50" viewBox="0 0 50 50" fill="none" xmlns="http://www.w3.org/2000/svg">
<path fill-rule="evenodd" clip-rule="evenodd" d="M25 50C38.8071 50 50 38.8071 50 25C50 11.1929 38.8071 0 25 0C11.1929 0 0 11.1929 0 25C0 38.8071 11.1929 50 25 50ZM11.4703 25C11.6255 25.2745 11.8537 25.6614 12.1525 26.1241C12.775 27.088 13.6973 28.3706 14.8962 29.6494C17.3122 32.2264 20.7328 34.6667 25 34.6667C29.2672 34.6667 32.6878 32.2264 35.1038 29.6494C36.3027 28.3706 37.225 27.088 37.8475 26.1241C38.1463 25.6614 38.3745 25.2745 38.5297 25C38.3745 24.7255 38.1463 24.3386 37.8475 23.8759C37.225 22.912 36.3027 21.6294 35.1038 20.3506C32.6878 17.7736 29.2672 15.3333 25 15.3333C20.7328 15.3333 17.3122 17.7736 14.8962 20.3506C13.6973 21.6294 12.775 22.912 12.1525 23.8759C11.8537 24.3386 11.6255 24.7255 11.4703 25ZM39.6667 25C40.5611 24.5528 40.5609 24.5524 40.5607 24.5521L40.5602 24.5511L40.5589 24.5484L40.5547 24.5401L40.5404 24.5122L40.5219 24.4764L40.4884 24.4125C40.4432 24.3272 40.3773 24.2051 40.2908 24.0514C40.118 23.7441 39.8628 23.3099 39.5275 22.7908C38.8584 21.7546 37.864 20.3706 36.5629 18.9827C33.9789 16.2264 30.0662 13.3333 25 13.3333C19.9338 13.3333 16.0211 16.2264 13.4371 18.9827C12.136 20.3706 11.1416 21.7546 10.4725 22.7908C10.1372 23.3099 9.88199 23.7441 9.70915 24.0514C9.6227 24.2051 9.55675 24.3272 9.51163 24.4125C9.48907 24.4551 9.4717 24.4886 9.45957 24.5122L9.4453 24.5401L9.44112 24.5484L9.43976 24.5511L9.43927 24.5521C9.43908 24.5524 9.43891 24.5528 10.3333 25L9.43891 24.5528C9.29814 24.8343 9.29814 25.1657 9.43891 25.4472L10.3333 25C9.43891 25.4472 9.43908 25.4476 9.43927 25.4479L9.43976 25.4489L9.44112 25.4516L9.4453 25.4599L9.45957 25.4878C9.4717 25.5114 9.48907 25.5449 9.51163 25.5875C9.55675 25.6728 9.6227 25.7949 9.70915 25.9486C9.88199 26.2559 10.1372 26.6902 10.4725 27.2092C11.1416 28.2454 12.136 29.6294 13.4371 31.0173C16.0211 33.7736 19.9338 36.6667 25 36.6667C30.0662 36.6667 33.9789 33.7736 36.5629 31.0173C37.864 29.6294 38.8584 28.2454 39.5275 27.2092C39.8628 26.6902 40.118 26.2559 40.2908 25.9486C40.3773 25.7949 40.4432 25.6728 40.4884 25.5875C40.5109 25.5449 40.5283 25.5114 40.5404 25.4878L40.5547 25.4599L40.5589 25.4516L40.5602 25.4489L40.5607 25.4479C40.5609 25.4476 40.5611 25.4472 39.6667 25ZM39.6667 25L40.5611 25.4472C40.7019 25.1657 40.7019 24.8343 40.5611 24.5528L39.6667 25ZM25 22C23.3431 22 22 23.3431 22 25C22 26.6569 23.3431 28 25 28C26.6569 28 28 26.6569 28 25C28 23.3431 26.6569 22 25 22ZM20 25C20 22.2386 22.2386 20 25 20C27.7614 20 30 22.2386 30 25C30 27.7614 27.7614 30 25 30C22.2386 30 20 27.7614 20 25Z" fill="white"/>
</svg>
