<svg width="18" height="18" viewBox="0 0 18 18" fill="none" xmlns="http://www.w3.org/2000/svg">
<path d="M9 15.5455C7.17273 15.5455 5.625 14.9114 4.35682 13.6432C3.08864 12.375 2.45455 10.8273 2.45455 9C2.45455 7.17273 3.08864 5.625 4.35682 4.35682C5.625 3.08864 7.17273 2.45455 9 2.45455C10.8273 2.45455 12.375 3.08864 13.6432 4.35682C14.9114 5.625 15.5455 7.17273 15.5455 9C15.5455 10.8273 14.9114 12.375 13.6432 13.6432C12.375 14.9114 10.8273 15.5455 9 15.5455ZM9 13.9091C10.3636 13.9091 11.5227 13.4318 12.4773 12.4773C13.4318 11.5227 13.9091 10.3636 13.9091 9C13.9091 8.76818 13.892 8.53977 13.858 8.31477C13.8239 8.08977 13.7727 7.86818 13.7045 7.65C13.5 7.69091 13.2955 7.72159 13.0909 7.74204C12.8864 7.7625 12.6818 7.77273 12.4773 7.77273C11.6182 7.77273 10.8 7.60909 10.0227 7.28182C9.24545 6.95455 8.55 6.47727 7.93636 5.85C7.55455 6.62727 7.02955 7.30227 6.36136 7.875C5.69318 8.44773 4.93636 8.86364 4.09091 9.12273C4.13182 10.4591 4.62614 11.5909 5.57386 12.5182C6.52159 13.4455 7.66364 13.9091 9 13.9091ZM4.41818 7.24091C5.01818 6.92727 5.475 6.5625 5.78864 6.14659C6.10227 5.73068 6.40909 5.23636 6.70909 4.66364C6.19091 4.93636 5.73409 5.29432 5.33864 5.7375C4.94318 6.18068 4.63636 6.68182 4.41818 7.24091ZM6.95455 10.6364C6.72273 10.6364 6.52841 10.558 6.37159 10.4011C6.21477 10.2443 6.13636 10.05 6.13636 9.81818C6.13636 9.58636 6.21477 9.39204 6.37159 9.23523C6.52841 9.07841 6.72273 9 6.95455 9C7.18636 9 7.38068 9.07841 7.5375 9.23523C7.69432 9.39204 7.77273 9.58636 7.77273 9.81818C7.77273 10.05 7.69432 10.2443 7.5375 10.4011C7.38068 10.558 7.18636 10.6364 6.95455 10.6364ZM12.4773 6.13636H12.7227C12.8045 6.13636 12.8864 6.12954 12.9682 6.11591C12.5182 5.50227 11.9489 5.01136 11.2602 4.64318C10.5716 4.275 9.81818 4.09091 9 4.09091H8.75455C8.67273 4.09091 8.59773 4.09773 8.52954 4.11136C9.06136 4.725 9.62386 5.21591 10.217 5.58409C10.8102 5.95227 11.5636 6.13636 12.4773 6.13636ZM11.0455 10.6364C10.8136 10.6364 10.6193 10.558 10.4625 10.4011C10.3057 10.2443 10.2273 10.05 10.2273 9.81818C10.2273 9.58636 10.3057 9.39204 10.4625 9.23523C10.6193 9.07841 10.8136 9 11.0455 9C11.2773 9 11.4716 9.07841 11.6284 9.23523C11.7852 9.39204 11.8636 9.58636 11.8636 9.81818C11.8636 10.05 11.7852 10.2443 11.6284 10.4011C11.4716 10.558 11.2773 10.6364 11.0455 10.6364ZM0 4.09091V1.63636C0 1.18636 0.160227 0.801136 0.480682 0.480682C0.801136 0.160227 1.18636 0 1.63636 0H4.09091V1.63636H1.63636V4.09091H0ZM4.09091 18H1.63636C1.18636 18 0.801136 17.8398 0.480682 17.5193C0.160227 17.1989 0 16.8136 0 16.3636V13.9091H1.63636V16.3636H4.09091V18ZM13.9091 18V16.3636H16.3636V13.9091H18V16.3636C18 16.8136 17.8398 17.1989 17.5193 17.5193C17.1989 17.8398 16.8136 18 16.3636 18H13.9091ZM16.3636 4.09091V1.63636H13.9091V0H16.3636C16.8136 0 17.1989 0.160227 17.5193 0.480682C17.8398 0.801136 18 1.18636 18 1.63636V4.09091H16.3636Z" fill="white"/>
</svg>
