<svg width="82" height="25" viewBox="0 0 82 25" fill="none" xmlns="http://www.w3.org/2000/svg">
<rect x="0.5" y="0.5" width="81" height="24" fill="#090D28" stroke="url(#paint0_linear_707_726)"/>
<g filter="url(#filter0_d_707_726)">
<path fill-rule="evenodd" clip-rule="evenodd" d="M51.6025 13.8579C51.1379 14.8194 50.1164 15.588 48.9764 15.8279C48.3932 15.9506 47.804 15.9768 47.2087 15.9067C46.0878 15.7747 45.1468 15.2613 44.4969 14.4299C43.7347 13.4544 43.6316 12.1367 44.1642 11.0576C44.4174 10.5449 44.8449 10.0855 45.3335 9.73995C45.8924 9.34456 46.5641 9.10874 47.2757 9.03378C48.8137 8.87197 50.2185 9.28533 51.1688 10.4064C52.0004 11.3875 52.1404 12.7453 51.6025 13.8579ZM45.4451 10.6876C44.8647 11.3193 44.6603 12.1489 44.8053 12.954C44.9046 13.5054 45.1785 13.9914 45.6272 14.4119C46.3209 15.0625 47.2444 15.3064 48.2345 15.2281C49.0097 15.1668 49.6892 14.8711 50.2039 14.3594C50.8365 13.7304 51.0685 12.9571 50.9652 12.1127C50.8353 11.0511 49.968 10.1095 48.8242 9.81604C48.2768 9.67554 47.7146 9.65881 47.1378 9.76577C46.4691 9.88987 45.8801 10.2139 45.4451 10.6876Z" fill="url(#paint1_linear_707_726)"/>
<path fill-rule="evenodd" clip-rule="evenodd" d="M72.5324 16H71.5139C71.5139 16 71.514 16 71.5139 16C71.5095 16 71.5059 15.9968 71.5059 15.9928C71.5059 15.9917 71.5061 15.9907 71.5066 15.9897L75.2039 9.11438C75.2053 9.11184 75.2081 9.11023 75.2112 9.11023C75.2143 9.11023 75.2172 9.11184 75.2185 9.11438L78.8736 15.9686C78.8743 15.9696 78.8743 15.9706 78.8743 15.9717C78.8743 15.9757 78.8707 15.9789 78.8662 15.9789L77.8116 15.9711C77.8116 15.9711 77.8117 15.9711 77.8116 15.9711C77.8086 15.9711 77.8057 15.9695 77.8044 15.967L75.2186 11.0756C75.2172 11.0731 75.2144 11.0715 75.2113 11.0715C75.2083 11.0715 75.2054 11.0731 75.204 11.0756L72.5396 15.996C72.5382 15.9984 72.5355 16 72.5324 16C72.5324 16 72.5324 16 72.5324 16Z" fill="url(#paint2_linear_707_726)"/>
<g filter="url(#filter1_d_707_726)">
<path fill-rule="evenodd" clip-rule="evenodd" d="M4.05742 9.11578H8.61866C8.62309 9.11578 8.6267 9.11899 8.6267 9.12295V9.79931C8.6267 9.80327 8.62309 9.80647 8.61866 9.80647H4.05742C4.05299 9.80647 4.04938 9.80327 4.04938 9.79931V9.12295C4.04938 9.11899 4.05299 9.11578 4.05742 9.11578Z" fill="url(#paint3_linear_707_726)"/>
</g>
<path fill-rule="evenodd" clip-rule="evenodd" d="M18.4781 14.3559C18.175 15.113 17.5439 15.6657 16.6586 15.8534C15.846 16.0257 14.8869 15.9415 14.1979 15.4959C13.3354 14.9385 13.0258 14.0061 13.0251 13.0939C13.024 11.7721 13.0239 10.4501 13.0245 9.12813C13.0245 9.12005 13.0291 9.116 13.0383 9.116L13.7895 9.11578C13.7942 9.11578 13.7966 9.11795 13.7966 9.12228C13.7959 10.3741 13.7959 11.625 13.7968 12.8749C13.7973 13.5582 13.9033 14.2888 14.4918 14.7854C14.9855 15.2021 15.6945 15.3006 16.3474 15.1956C17.5449 15.0031 17.9519 14.0162 17.9501 13.049C17.9481 11.7418 17.9469 10.4346 17.9466 9.12746C17.9466 9.11981 17.9509 9.116 17.9594 9.116H18.7041C18.7129 9.116 18.7173 9.1199 18.7173 9.12767C18.7222 11.0722 18.7219 12.4203 18.7164 13.1722C18.7133 13.5722 18.6339 13.9668 18.4781 14.3559Z" fill="url(#paint4_linear_707_726)"/>
<path fill-rule="evenodd" clip-rule="evenodd" d="M24.4839 13.4701V15.8155C24.4839 15.8222 24.4779 15.8276 24.4704 15.8276H23.6447C23.6404 15.8276 23.637 15.8245 23.637 15.8207V9.128C23.637 9.12142 23.6406 9.11813 23.648 9.11813C25.0924 9.11258 26.0875 9.11282 26.6334 9.1188C27.0475 9.12328 27.4475 9.19659 27.8334 9.3387C28.6693 9.64637 29.1791 10.243 29.2465 11.0686C29.3042 11.7784 29.0577 12.4419 28.4141 12.8811C27.7512 13.3332 27.0118 13.4591 26.1951 13.4587C25.6287 13.4583 25.0621 13.4587 24.4954 13.4598C24.4878 13.4598 24.4839 13.4632 24.4839 13.4701ZM27.8327 12.3607C28.3396 11.9996 28.5011 11.4101 28.3381 10.8637C28.1405 10.2008 27.4766 9.90106 26.7651 9.83238C26.6645 9.82265 26.4975 9.81756 26.2641 9.81714C25.6729 9.81592 25.0819 9.81577 24.4912 9.81668C24.4872 9.81668 24.4839 9.81958 24.4839 9.82317V12.7624C24.4839 12.7657 24.487 12.7684 24.4907 12.7684C25.1229 12.7687 25.7558 12.7684 26.3895 12.7675C26.9062 12.7668 27.4225 12.6526 27.8327 12.3607Z" fill="url(#paint5_linear_707_726)"/>
<path fill-rule="evenodd" clip-rule="evenodd" d="M34.4314 12.8163V15.8195C34.4314 15.824 34.4273 15.8277 34.4221 15.8277H33.594C33.5888 15.8277 33.5847 15.824 33.5847 15.8194V9.12429C33.5847 9.11972 33.5888 9.116 33.594 9.116L34.4221 9.11578C34.4273 9.11578 34.4314 9.1195 34.4314 9.12408V12.0895C34.4314 12.0941 34.4355 12.0978 34.4407 12.0978H38.75C38.7551 12.0978 38.7592 12.0941 38.7592 12.0895L38.759 9.12429C38.759 9.11972 38.7631 9.116 38.7682 9.116L39.5959 9.11578C39.601 9.11578 39.6052 9.1195 39.6052 9.12408L39.6052 15.8195C39.6052 15.824 39.601 15.8277 39.5959 15.8277H38.7682C38.7631 15.8277 38.759 15.824 38.759 15.8194V12.8166C38.759 12.812 38.7548 12.8083 38.7497 12.8083L34.4407 12.808C34.4355 12.808 34.4314 12.8117 34.4314 12.8163Z" fill="url(#paint6_linear_707_726)"/>
<path fill-rule="evenodd" clip-rule="evenodd" d="M60.3666 13.0826C60.3567 13.084 60.3548 13.0882 60.3608 13.0954L62.6452 15.8151C62.6522 15.8235 62.6499 15.8277 62.6382 15.8277H61.6293C61.6206 15.8277 61.6122 15.824 61.6068 15.8177L59.4489 13.2296C59.4436 13.2231 59.4364 13.2199 59.4276 13.2199H57.3125C57.3033 13.2199 57.2987 13.2241 57.2987 13.2325V15.8153C57.2987 15.8221 57.2925 15.8277 57.2849 15.8277H56.4592C56.4552 15.8277 56.4519 15.8247 56.4519 15.8211V9.12759C56.4519 9.12027 56.4561 9.11658 56.4642 9.11658C57.5078 9.11478 58.5504 9.11478 59.5921 9.11658C59.8165 9.11704 59.9835 9.12183 60.093 9.13094C61.3908 9.2398 62.4331 9.92893 62.3862 11.2037C62.3605 11.9013 62.0144 12.423 61.3482 12.7687C61.0415 12.9277 60.7143 13.0324 60.3666 13.0826ZM61.4392 10.6665C61.1581 10.0178 60.3846 9.81873 59.6613 9.81739C58.878 9.81605 58.0928 9.81581 57.3057 9.81672C57.3018 9.81672 57.2987 9.81962 57.2987 9.82321V12.527C57.2987 12.534 57.3026 12.5376 57.3105 12.5376C58.0314 12.5392 58.7522 12.5392 59.473 12.5376C59.7093 12.5369 59.8763 12.5315 59.9739 12.5214C60.6324 12.4523 61.3329 12.1141 61.4901 11.4878C61.5555 11.2268 61.5475 10.916 61.4392 10.6665Z" fill="url(#paint7_linear_707_726)"/>
<path fill-rule="evenodd" clip-rule="evenodd" d="M67.0129 9.11591H67.843C67.8475 9.11591 67.8512 9.11923 67.8512 9.12331V15.8202C67.8512 15.8243 67.8475 15.8277 67.843 15.8277H67.0129C67.0084 15.8277 67.0047 15.8243 67.0047 15.8202V9.12331C67.0047 9.11923 67.0084 9.11591 67.0129 9.11591Z" fill="url(#paint8_linear_707_726)"/>
<path fill-rule="evenodd" clip-rule="evenodd" d="M4.82087 12.7958V15.1277C4.82087 15.1329 4.82561 15.1371 4.8314 15.1371H8.66253C8.66836 15.1371 8.67309 15.1414 8.67309 15.1466L8.67333 15.8182C8.67333 15.8234 8.6686 15.8276 8.66281 15.8276H4.0599C4.05411 15.8276 4.04938 15.8234 4.04938 15.8182V12.1055C4.04938 12.1003 4.05411 12.0961 4.05994 12.0961H8.21022C8.21604 12.0961 8.22078 12.1003 8.22078 12.1055V12.7772C8.22078 12.7824 8.21604 12.7866 8.21025 12.7866L4.8314 12.7863C4.82561 12.7863 4.82087 12.7906 4.82087 12.7958Z" fill="url(#paint9_linear_707_726)"/>
<path fill-rule="evenodd" clip-rule="evenodd" d="M74.5178 15.9893L75.1833 14.9633C75.1846 14.961 75.1874 14.9596 75.1903 14.9596C75.1934 14.9596 75.1959 14.961 75.1973 14.9633L75.8628 15.9893C75.8634 15.9904 75.8638 15.9916 75.8638 15.9928C75.8638 15.9968 75.8602 16 75.8557 16L74.5248 16C74.5248 16 74.5248 16 74.5248 16C74.5204 16 74.5167 15.9968 74.5167 15.9928C74.5167 15.9916 74.5171 15.9904 74.5178 15.9893Z" fill="url(#paint10_linear_707_726)"/>
</g>
<defs>
<filter id="filter0_d_707_726" x="4.04938" y="9" width="74.8249" height="7.00005" filterUnits="userSpaceOnUse" color-interpolation-filters="sRGB">
<feFlood flood-opacity="0" result="BackgroundImageFix"/>
<feColorMatrix in="SourceAlpha" type="matrix" values="0 0 0 0 0 0 0 0 0 0 0 0 0 0 0 0 0 0 127 0" result="hardAlpha"/>
<feOffset/>
<feComposite in2="hardAlpha" operator="out"/>
<feColorMatrix type="matrix" values="0 0 0 0 0 0 0 0 0 0 0 0 0 0 0 0 0 0 0.25 0"/>
<feBlend mode="normal" in2="BackgroundImageFix" result="effect1_dropShadow_707_726"/>
<feBlend mode="normal" in="SourceGraphic" in2="effect1_dropShadow_707_726" result="shape"/>
</filter>
<filter id="filter1_d_707_726" x="0.0493774" y="9.11578" width="12.5773" height="8.69067" filterUnits="userSpaceOnUse" color-interpolation-filters="sRGB">
<feFlood flood-opacity="0" result="BackgroundImageFix"/>
<feColorMatrix in="SourceAlpha" type="matrix" values="0 0 0 0 0 0 0 0 0 0 0 0 0 0 0 0 0 0 127 0" result="hardAlpha"/>
<feOffset dy="4"/>
<feGaussianBlur stdDeviation="2"/>
<feComposite in2="hardAlpha" operator="out"/>
<feColorMatrix type="matrix" values="0 0 0 0 0 0 0 0 0 0 0 0 0 0 0 0 0 0 0.25 0"/>
<feBlend mode="normal" in2="BackgroundImageFix" result="effect1_dropShadow_707_726"/>
<feBlend mode="normal" in="SourceGraphic" in2="effect1_dropShadow_707_726" result="shape"/>
</filter>
<linearGradient id="paint0_linear_707_726" x1="-3.64522e-07" y1="14.5" x2="82" y2="13" gradientUnits="userSpaceOnUse">
<stop offset="0.4" stop-color="#FFD914"/>
<stop offset="0.62" stop-color="#FFAA06"/>
</linearGradient>
<linearGradient id="paint1_linear_707_726" x1="43.7718" y1="12.4725" x2="51.8272" y2="12.4725" gradientUnits="userSpaceOnUse">
<stop offset="0.136895" stop-color="#FFE600"/>
<stop offset="0.214" stop-color="#FFA800"/>
</linearGradient>
<linearGradient id="paint2_linear_707_726" x1="71.4518" y1="12.5551" x2="78.7882" y2="12.5551" gradientUnits="userSpaceOnUse">
<stop offset="0.136895" stop-color="#FFE600"/>
<stop offset="0.214" stop-color="#FFA800"/>
</linearGradient>
<linearGradient id="paint3_linear_707_726" x1="4.01577" y1="9.46113" x2="8.57322" y2="9.46113" gradientUnits="userSpaceOnUse">
<stop offset="0.136895" stop-color="#FFE600"/>
<stop offset="0.214" stop-color="#FFA800"/>
</linearGradient>
<linearGradient id="paint4_linear_707_726" x1="12.9823" y1="12.5262" x2="18.6542" y2="12.5262" gradientUnits="userSpaceOnUse">
<stop offset="0.136895" stop-color="#FFE600"/>
<stop offset="0.214" stop-color="#FFA800"/>
</linearGradient>
<linearGradient id="paint5_linear_707_726" x1="23.5957" y1="12.4709" x2="29.189" y2="12.4709" gradientUnits="userSpaceOnUse">
<stop offset="0.136895" stop-color="#FFE600"/>
<stop offset="0.214" stop-color="#FFA800"/>
</linearGradient>
<linearGradient id="paint6_linear_707_726" x1="33.5405" y1="12.4718" x2="39.5349" y2="12.4718" gradientUnits="userSpaceOnUse">
<stop offset="0.136895" stop-color="#FFE600"/>
<stop offset="0.214" stop-color="#FFA800"/>
</linearGradient>
<linearGradient id="paint7_linear_707_726" x1="56.4064" y1="12.4714" x2="62.5767" y2="12.4714" gradientUnits="userSpaceOnUse">
<stop offset="0.136895" stop-color="#FFE600"/>
<stop offset="0.214" stop-color="#FFA800"/>
</linearGradient>
<linearGradient id="paint8_linear_707_726" x1="66.9985" y1="12.4718" x2="67.8414" y2="12.4718" gradientUnits="userSpaceOnUse">
<stop offset="0.136895" stop-color="#FFE600"/>
<stop offset="0.214" stop-color="#FFA800"/>
</linearGradient>
<linearGradient id="paint9_linear_707_726" x1="4.01543" y1="13.9619" x2="8.6193" y2="13.9619" gradientUnits="userSpaceOnUse">
<stop offset="0.136895" stop-color="#FFE600"/>
<stop offset="0.214" stop-color="#FFA800"/>
</linearGradient>
<linearGradient id="paint10_linear_707_726" x1="74.5068" y1="15.4798" x2="75.848" y2="15.4798" gradientUnits="userSpaceOnUse">
<stop offset="0.136895" stop-color="#FFE600"/>
<stop offset="0.214" stop-color="#FFA800"/>
</linearGradient>
</defs>
</svg>
