<svg width="23" height="23" viewBox="0 0 23 23" fill="none" xmlns="http://www.w3.org/2000/svg">
<path d="M22.7254 19.7565C21.71 18.9742 19.0065 16.8135 16.4886 14.2169C14.8151 12.4901 14.1032 10.7614 12.8345 9.4528C11.6853 8.26761 10.6401 7.57689 10.6401 7.57689L10.3457 7.88047L8.35708 5.82977L9.12523 5.03747C9.18759 4.97239 9.22241 4.88574 9.22241 4.79561C9.22241 4.70547 9.18759 4.61882 9.12523 4.55374L8.96654 4.39007C8.96731 4.3893 11.2273 1.34814 14.0848 2.18911C14.4168 2.28762 14.7127 2.45513 14.7967 2.36965C14.9109 2.25236 14.4758 1.80159 14.2209 1.54094C10.6059 -2.15798 6.6184 1.96411 6.61648 1.96603L6.47581 1.82075C6.44554 1.78915 6.40918 1.76399 6.36893 1.74681C6.32868 1.72963 6.28537 1.72077 6.24161 1.72077C6.19784 1.72077 6.15453 1.72963 6.11428 1.74681C6.07403 1.76399 6.03767 1.78915 6.0074 1.82075L2.46602 5.47291C2.40366 5.53799 2.36884 5.62464 2.36884 5.71478C2.36884 5.80491 2.40366 5.89157 2.46602 5.95665C2.46602 5.95665 2.89954 6.71521 1.76265 6.85167C1.30498 6.90725 1.01827 7.01036 0.855746 7.14643C0.602052 7.40229 0.349195 7.65898 0.09718 7.9165C0.0348161 7.98158 0 8.06823 0 8.15837C0 8.2485 0.0348161 8.33516 0.09718 8.40023L2.74737 11.134C2.77767 11.1656 2.81406 11.1908 2.85434 11.208C2.89462 11.2251 2.93797 11.234 2.98176 11.234C3.02556 11.234 3.0689 11.2251 3.10918 11.208C3.14946 11.1908 3.18585 11.1656 3.21616 11.134C3.21616 11.134 3.94674 10.3712 3.96246 10.3513C4.09393 10.1834 4.19436 9.88824 4.24725 9.416C4.38065 8.24308 5.11506 8.69078 5.11506 8.69078C5.14534 8.72251 5.18175 8.74776 5.22207 8.76502C5.26239 8.78227 5.30579 8.79117 5.34965 8.79117C5.39351 8.79117 5.43691 8.78227 5.47723 8.76502C5.51755 8.74776 5.55395 8.72251 5.58423 8.69078L6.35238 7.89848L8.34021 9.9488L8.04583 10.2528C8.04583 10.2528 8.71586 11.331 9.86501 12.5162C11.1334 13.8244 12.81 14.5585 14.4839 16.2853C17.0011 18.8818 19.0958 21.6696 19.8555 22.7172C20.1423 23.1116 20.1879 23.0752 20.5378 22.7137L21.6299 21.5876L22.7212 20.4618C23.0719 20.0992 23.1079 20.0524 22.7254 19.7565Z" fill="#615EF0"/>
<path d="M12.2689 7.93074C12.5978 8.22794 12.9171 8.53577 13.226 8.85375C13.8362 9.48314 14.3468 10.1873 14.8585 10.9389L18.286 7.51102C18.9216 7.66635 19.5865 7.65535 20.2166 7.47909C20.8467 7.30282 21.4208 6.96723 21.8835 6.50465C22.3463 6.04207 22.682 5.4681 22.8585 4.83806C23.035 4.20801 23.0462 3.54313 22.8911 2.90749L19.7802 6.01842L17.5723 5.42697L16.9805 3.21797L20.0906 0.10896C19.4552 -0.0465275 18.7904 -0.0354359 18.1605 0.141163C17.5305 0.317762 16.9568 0.653893 16.4948 1.11706C16.032 1.57925 15.6961 2.15288 15.5195 2.78263C15.3428 3.41239 15.3314 4.07704 15.4864 4.71249L12.2689 7.93074ZM9.38678 12.8141C9.05807 12.4746 8.74114 12.1239 8.43656 11.7627L4.71195 15.4877C4.07652 15.3323 3.41178 15.3435 2.78191 15.52C2.15204 15.6965 1.57832 16.0325 1.11614 16.4954C-0.37224 17.9826 -0.371856 20.3951 1.11614 21.8828C1.46977 22.2366 1.88966 22.5174 2.35182 22.7089C2.81399 22.9004 3.30937 22.999 3.80965 22.999C4.30993 22.999 4.80531 22.9004 5.26747 22.7089C5.72964 22.5174 6.14953 22.2366 6.50315 21.8828C6.96598 21.4203 7.3019 20.8464 7.47853 20.2164C7.65517 19.5864 7.66657 18.9215 7.51163 18.2858L11.3462 14.4516C10.641 13.9387 9.97899 13.4247 9.38678 12.8141ZM4.40147 21.3971L2.19324 20.8053L1.60179 18.5967L3.21859 16.981L5.42644 17.5717L6.01788 19.7807L4.40147 21.3971Z" fill="#615EF0"/>
</svg>
